<svg width="36" height="60" viewBox="0 0 36 60" fill="none" xmlns="http://www.w3.org/2000/svg">
<path d="M8.79364 1.62214C8.58496 0.820433 7.76587 0.339688 6.96416 0.548371C6.16245 0.757055 5.6817 1.57614 5.89039 2.37786L8.79364 1.62214ZM14.9195 9.46345L14.2758 10.8183L14.3739 10.8649L14.4777 10.8969L14.9195 9.46345ZM26.9192 3.81032L26.5302 2.36165V2.36165L26.9192 3.81032ZM26.9192 30.7458L25.4336 30.5387L26.9192 30.7458ZM5.89553 58.5426C6.1952 59.3149 7.06423 59.6981 7.83655 59.3984L20.4223 54.5149C21.1947 54.2153 21.5778 53.3462 21.2781 52.5739C20.9785 51.8016 20.1094 51.4184 19.3371 51.7181L8.14976 56.059L3.80889 44.8716C3.50922 44.0993 2.64019 43.7161 1.86786 44.0158C1.09554 44.3155 0.712378 45.1845 1.01205 45.9568L5.89553 58.5426ZM5.89039 2.37786C7.15536 7.23758 10.7687 9.15227 14.2758 10.8183L15.5631 8.10856C12.0702 6.44926 9.68293 5.03857 8.79364 1.62214L5.89039 2.37786ZM14.4777 10.8969C18.1447 12.0271 21.3443 12.5017 24.0709 12.5088L24.0787 9.50883C21.6915 9.50264 18.7882 9.08618 15.3613 8.02999L14.4777 10.8969ZM24.0709 12.5088C27.3228 12.5172 29.9293 11.8597 31.8365 10.8278C33.708 9.81531 35.0453 8.35357 35.4062 6.70527C35.591 5.86146 35.5095 4.98223 35.0971 4.18912C34.6868 3.39988 34.0056 2.80388 33.1728 2.41425C31.5469 1.65362 29.2674 1.62651 26.5302 2.36165L27.3083 5.25898C29.7193 4.61145 31.1859 4.79679 31.9015 5.13157C32.2394 5.28965 32.3777 5.4621 32.4354 5.57305C32.4911 5.68012 32.5262 5.8328 32.4756 6.06362C32.3659 6.56457 31.8254 7.42294 30.409 8.18925C29.0284 8.93621 26.9371 9.51623 24.0787 9.50883L24.0709 12.5088ZM26.5302 2.36165C24.5039 2.90586 23.2274 4.13986 22.6661 5.89048C22.1546 7.48559 22.2824 9.37618 22.5951 11.2551L25.5544 10.7626C25.2563 8.9715 25.2417 7.68307 25.5228 6.80654C25.754 6.08552 26.2052 5.55525 27.3083 5.25898L26.5302 2.36165ZM22.5951 11.2551C22.8293 12.6624 23.1919 14.1897 23.5746 15.7523C23.9614 17.3319 24.371 18.9559 24.7242 20.6275C25.432 23.978 25.8761 27.3636 25.4336 30.5387L28.4049 30.9528C28.92 27.2567 28.3894 23.463 27.6594 20.0074C27.2936 18.276 26.8685 16.5903 26.4884 15.0386C26.1043 13.47 25.7678 12.0444 25.5544 10.7626L22.5951 11.2551ZM25.4336 30.5387C24.784 35.1999 21.5509 38.7765 17.4254 42.8712C13.411 46.8557 8.62335 51.2668 5.92143 57.3949L8.66646 58.6052C11.0901 53.1082 15.3863 49.1219 19.5388 45.0005C23.5801 40.9892 27.5968 36.7512 28.4049 30.9528L25.4336 30.5387Z" fill="#E15544"/>
</svg>
